<svg xmlns="http://www.w3.org/2000/svg" viewBox="0 0 238.99 28.38"><defs><style>.cls-1{fill:#0d9cb2;}.cls-2{fill:#773090;}.cls-3{fill:#0facb2;}.cls-4{fill:#0fa8b2;}.cls-5{fill:#2679a1;}.cls-6{fill:#473781;}.cls-7{fill:#3b4d87;}.cls-8{fill:#444685;}.cls-9{fill:#563086;}.cls-10{fill:#1488ab;}.cls-11{fill:#911f9a;}.cls-12{fill:#503985;}.cls-13{fill:#296192;}.cls-14{fill:#65358e;}.cls-15{fill:#33528a;}.cls-16{fill:#892596;}.cls-17{fill:#286595;}.cls-18{fill:#8e2b9a;}.cls-19{fill:#ecf7f8;}</style></defs><title>IlustratorLogo</title><g id="Layer_2" data-name="Layer 2"><g id="Layer_1-2" data-name="Layer 1"><path class="cls-1" d="M182.08,7.3c1.51-3.22,3.35-5.56,7.26-6.86h6.16a15.76,15.76,0,0,1,7.59,7.76V12a4.55,4.55,0,0,1-1.26.36c-4.16,0-8.31,0-12.46,0-.77,0-1.54.12-3,.24l3.17,3.81c2.59-.32,5.15.41,7.69-.92.86-.45,2.56.7,3.95,1.14-.15,3-3,3.14-4.53,4.67C185.47,22.54,180.93,18.24,182.08,7.3Zm15.47.83a6.15,6.15,0,0,0-6.65-3.78l-4.15,3.78Z"/><path class="cls-2" d="M33.19,21.32c-4.46-1.56-6.28-4.89-8.13-9.19C24.49,9,26.37,6,28.82,3.14A7.63,7.63,0,0,1,35.63.32c1.64.15,3.31,0,4.89,0,1.73,1.59,4.53,1.61,6,4.21A26.88,26.88,0,0,0,44,5.94a28.37,28.37,0,0,0-2.32,2.29L40.88,5l-8,.94a8.91,8.91,0,0,0-1.77,6.67l2.09,3.53h6.55l2.1-2,4.48,2.91C42.8,22.1,37.57,21.38,33.19,21.32Z"/><path class="cls-3" d="M234.26.36c.84.42,1.4.68,1.94,1s1.06.7,1.18.78c1.19,1.19.71,2.42-1.37,4.44a13.79,13.79,0,0,0-2.38-1.14,10.11,10.11,0,0,0-2.48,0c0,.72,0,1.51.12,1.56,3.18,1.06,5.45,3.3,7.72,5.91v5.2l-4.2,3.2h-6.21l-3.73-2.44,1.73-3.46c2.57-.25,4.85,2.31,7.59.45-.42-2.51-2.89-2.41-4.4-3.54-1.7-1.26-3-3.1-4.73-5-.41-1.65.45-3.58,1.86-5.13C229-.18,231.89.33,234.26.36Z"/><path class="cls-4" d="M208.75,2.07c5-2.7,7.72-2.31,11.13.56-.07,2.2-.07,2.2-1.32,3.68-1.86,1-3.62-2.48-5.91.19A32.5,32.5,0,0,1,217.12,9,40.36,40.36,0,0,1,221,12.79c.46,3.84-.37,7-5.15,8.53-5.49.05-5.49.05-8.9-2.55l1.5-3.37,7.11,1.13c1.16-2-.31-2.92-1-3.08-3.28-.76-5-3.36-7.26-5.37C207.21,5.3,207.21,5.3,208.75,2.07Z"/><path class="cls-5" d="M154.09,24.35a15.31,15.31,0,0,0,2.25-1.8c.93-1.06,1.76-2.29-.25-3.2-.38-1,.93-2.54-1-3L158,12.68a7.73,7.73,0,0,0-2.46-7.33h-2.48v-5c1.73-.57,2.9,2,5,.68,1.23-.77,3-.64,5-1,0,7.18.14,14-.09,20.71-.06,1.73-1.29,3.42-1.93,5l-3.81,2.59h-3.17Z"/><path class="cls-6" d="M82.09,2.35c1.64.44,2.32-.9,3.39-1.88h5.91A11.38,11.38,0,0,1,98,7.33v7.42a11.87,11.87,0,0,1-7,6.56H85.76l-2.67-2c-.33-.24-.9-.43-1-.72a5.31,5.31,0,0,1,1-4.28l5.12,3.24L93,14.1V7.38l-5-3.25-5,3.22c-.33-.4-.91-.78-1-1.2A37.06,37.06,0,0,1,82.09,2.35Z"/><path class="cls-7" d="M129.09,21.35h-5.9l-5.52-4.77c-1.61-3.83-2.39-7.16-.75-10.75L123.14.35h6v5h-3.41l-3.52,2.3v6.06l2.38,2.64h4.55Z"/><path class="cls-8" d="M113,0V4.41l-3.86,1.42c-2.31,4.53-.41,9.86-1.22,15.32l-4.87.26a12.7,12.7,0,0,1-.92-3.14c-.08-5.48,0-10.95,0-16.43L103.75.19l4.38.93Z"/><path class="cls-9" d="M60.09.35c2,.05,4-.11,6,.93a10.67,10.67,0,0,1,5,14.11c-2.18,5-6.19,6.13-11,6v-4c5.51-.44,7-2.25,7-8.45-.8-1.25-1.56-2.45-2.27-3.55h-4.7Z"/><path class="cls-10" d="M172.86,21.35h-4.29c-.1-.11-.31-.23-.31-.35q0-10.17,0-20.36c1.62-.48,3.18-.71,4.3.52L179.28,0c-.57,2-1,3.4-1.52,5.25l-3.17.14C172,10.65,173.71,16.16,172.86,21.35Z"/><path class="cls-11" d="M9.09,21.35C.81,19.69-.71,13.64.26,8.41c.48-2.61,1.66-5.68,5-6.7C6.53,1.3,7.8.8,9.09.35v4c-.3,1.7-3.89,1-2.68,4H9.09v4H4.46l4.63,5Z"/><path class="cls-12" d="M82.09,2.35a37.06,37.06,0,0,0,0,3.8c0,.42.62.8,1,1.2-1,1.84-1.88,3.66,0,5.56.24.25,0,.95,0,1.44a5.31,5.31,0,0,0-1,4.28c.06.29.63.48,1,.72v8.81l-4.83.22V1.57C79.5,1.41,80.94.56,82.09,2.35Z"/><path class="cls-13" d="M153.09.35v5h-3.54a8,8,0,0,0-2.41,7.25l3,3.75v4h-2.23c-5-3.46-7.31-8.12-5.32-13.79C144,2.34,147.6-.44,153.09.35Z"/><path class="cls-14" d="M60.09.35v5c-2.71-.48-2.71,2.16-3.92,3.53-.09,5.28,0,5.46,3.92,8.47v4c-8.28-1.66-9.8-7.71-8.83-12.94.48-2.61,1.66-5.68,5-6.7C57.53,1.3,58.8.8,60.09.35Z"/><path class="cls-15" d="M129.09,21.35v-5L132,14V7.62l-2.95-2.27v-5c3.07.09,5.12,2.09,6.62,4.29a11.7,11.7,0,0,1,2.2,6.45,12.77,12.77,0,0,1-2.53,6.33C134,19.5,132,21.26,129.09,21.35Z"/><path class="cls-16" d="M9.09,4.35v-4h5.39C16.8,2.33,19.32,4,21,7.11v5.24H9.09v-4c2.31-.15,4.67.3,7.19-.3C14.13,5.75,12.12,4,9.09,4.35Z"/><path class="cls-17" d="M154.09,24.35v4H148a14.35,14.35,0,0,1-6.66-5.84c3.32-.27,6-.71,8.12.92C151,24.66,152.54,24.13,154.09,24.35Z"/><path class="cls-18" d="M9.09,21.35v-4c2-1.41,4.48-1.14,6.67-1.93,1.74-.62,3,.88,5.07,1.75l-6.3,4.18Z"/><path class="cls-19" d="M197.55,8.13h-10.8l4.15-3.78A6.15,6.15,0,0,1,197.55,8.13Z"/></g></g></svg>