<svg height="512" viewBox="0 0 512 512" width="512" xmlns="http://www.w3.org/2000/svg"><g id="Filledoutline"><path d="m72 344-32 104v32h432v-32l-32-104z" fill="#b2b1b4"/><path d="m144 344v32c0 17.673 50.144 32 112 32s112-14.327 112-32v-32z" fill="#c9c9c8"/><path d="m368 344c0 17.67-50.14 32-112 32s-112-14.33-112-32c0-7 7.86-13.47 21.2-18.74s32.14-9.32 54.04-11.5l16.48-153.76 2.58-24.09a17.8 17.8 0 0 1 35.4 0l2.58 24.09 16.48 153.76c43.8 4.35 75.24 16.25 75.24 30.24z" fill="#e3e4e2"/><path d="m276.28 160h-40.56l2.58-24.09a17.8 17.8 0 0 1 35.4 0z" fill="#0093b9"/><path d="m40 448h432v32h-432z" fill="#959494"/><path d="m136 344v32c0 12.8 12.989 23 38.606 30.319 21.849 6.243 50.755 9.681 81.394 9.681s59.545-3.438 81.394-9.681c25.617-7.319 38.606-17.519 38.606-30.319v-32c0-10.487-8.834-19.294-26.256-26.176-12.869-5.083-29.962-8.96-49.715-11.312l-18.371-171.454a25.8 25.8 0 0 0 -51.316 0l-18.371 171.454c-19.753 2.352-36.846 6.229-49.715 11.312-17.422 6.882-26.256 15.689-26.256 26.176zm197 46.936c-20.461 5.844-47.807 9.064-77 9.064s-56.539-3.22-77-9.064c-22.041-6.3-27-13.063-27-14.936v-10.625a105.138 105.138 0 0 0 22.6 8.943c21.854 6.244 50.76 9.682 81.4 9.682s59.546-3.438 81.4-9.682a105.138 105.138 0 0 0 22.6-8.943v10.625c0 1.873-4.961 8.638-27 14.936zm-77-262.936a9.789 9.789 0 0 1 9.75 8.762l1.633 15.238h-22.766l1.633-15.239a9.789 9.789 0 0 1 9.75-8.761zm-45.78 194.86-2.174 20.287 15.908 1.706 18.946-176.853h26.2l18.949 176.853 15.908-1.706-2.177-20.287c16.713 2.21 31.416 5.631 42.086 9.846 13.234 5.228 16.134 9.925 16.134 11.294 0 1.873-4.96 8.637-27 14.935-20.46 5.845-47.806 9.065-77 9.065s-56.54-3.22-77-9.065c-22.04-6.3-27-13.062-27-14.935 0-1.369 2.9-6.066 16.134-11.294 10.666-4.215 25.373-7.636 42.086-9.846z"/><path d="m248 80h16v16h-16z"/><path d="m279.7 84.175 15.8-2.524a40 40 0 0 0 -78.994 0l15.8 2.524a24.006 24.006 0 0 1 47.4 0z"/><path d="m256 32a55.944 55.944 0 0 1 49.472 29.733l14.128-7.515a72.024 72.024 0 0 0 -127.194 0l14.125 7.515a55.944 55.944 0 0 1 49.469-29.733z"/><path d="m192 144.534h16v16h-16z"/><path d="m160 152.534a39.8 39.8 0 0 0 33.65 39.5l2.524-15.8a24.006 24.006 0 0 1 0-47.4l-2.524-15.8a39.8 39.8 0 0 0 -33.65 39.5z"/><path d="m166.217 216.132 7.517-14.125a56.024 56.024 0 0 1 0-98.945l-7.517-14.124a72.024 72.024 0 0 0 0 127.194z"/><path d="m304 144.534h16v16h-16z"/><path d="m315.826 176.232 2.524 15.8a40 40 0 0 0 0-78.994l-2.524 15.8a24.006 24.006 0 0 1 0 47.4z"/><path d="m368 152.534a55.947 55.947 0 0 1 -29.734 49.473l7.517 14.125a72.024 72.024 0 0 0 0-127.194l-7.517 14.124a55.945 55.945 0 0 1 29.734 49.472z"/><path d="m479.987 448a7.967 7.967 0 0 0 -.341-2.353l-32-104a8 8 0 0 0 -7.646-5.647h-48v16h42.092l27.076 88h-410.336l27.076-88h42.092v-16h-48a8 8 0 0 0 -7.646 5.647l-32 104a7.967 7.967 0 0 0 -.341 2.353h-.013v32a8 8 0 0 0 8 8h432a8 8 0 0 0 8-8v-32zm-431.987 24v-16h416v16z"/><path d="m80 408h16v16h-16z"/><path d="m416 408h16v16h-16z"/><path d="m248 248h16v72h-16z"/></g></svg>